<?xml version="1.0" encoding="UTF-8"?>
<svg width="24px" height="24px" viewBox="0 0 24 24" version="1.1" xmlns="http://www.w3.org/2000/svg" xmlns:xlink="http://www.w3.org/1999/xlink">
    <!-- Generator: Sketch 53.2 (72643) - https://sketchapp.com -->
    <title>切图 copy 23</title>
    <desc>Created with Sketch.</desc>
    <g id="Page-1" stroke="none" stroke-width="1" fill="none" fill-rule="evenodd">
        <g id="切图" transform="translate(-313.000000, -431.000000)" fill="#FFFFFF">
            <g id="Group-4" transform="translate(313.000000, 433.000000)">
                <path d="M1.11156627,15.4311084 L22.0436145,15.4311084 L22.0436145,1.11183133 L1.11156627,1.11183133 L1.11156627,15.4311084 Z M0.555903614,16.5424337 C0.24939759,16.5424337 0,16.2932771 0,15.987012 L0,0.555686747 C0,0.249180723 0.24939759,2.40963855e-05 0.555903614,2.40963855e-05 L22.599759,2.40963855e-05 C22.9062651,2.40963855e-05 23.1556627,0.249180723 23.1556627,0.555686747 L23.1556627,15.987012 C23.1556627,16.2932771 22.9062651,16.5424337 22.599759,16.5424337 L0.555903614,16.5424337 Z M5.51108434,19.8489398 L17.6445783,19.8489398 L17.6445783,18.7376145 L5.51108434,18.7376145 L5.51108434,19.8489398 Z" id="Fill-1"></path>
                <path d="M8.82190361,13.2353735 C8.6233494,13.2353735 8.43853012,13.1281446 8.33973494,12.9553735 L6.29587952,9.37826506 L4.40889157,9.37826506 L4.40889157,8.2666988 L6.61780723,8.2666988 C6.81660241,8.2666988 7.00142169,8.37392771 7.0999759,8.5466988 L8.61756627,11.2035663 L10.4876867,3.72742169 C10.5450361,3.49946988 10.7414217,3.33127711 10.9766024,3.31031325 C10.992988,3.30862651 11.0096145,3.30790361 11.0264819,3.30790361 C11.2438313,3.30790361 11.4423855,3.43561446 11.5322651,3.63344578 L13.8064819,8.6346506 L14.9378072,6.36959036 C15.032506,6.17995181 15.2228675,6.06187952 15.4349157,6.06187952 C15.6467229,6.06187952 15.8370843,6.17995181 15.9322651,6.36983133 L16.8811807,8.2666988 L18.7464819,8.2666988 L18.7464819,9.37826506 L16.5378072,9.37826506 C16.3252771,9.37826506 16.1346747,9.2606747 16.0399759,9.07127711 L15.4380482,7.85609639 L14.2787711,10.1729639 C14.1843133,10.3611566 13.9941928,10.478747 13.7828675,10.478747 C13.5587711,10.4746506 13.3645542,10.3471807 13.2763614,10.1534458 L11.1787711,5.54356627 L9.36142169,12.8153735 C9.306,13.0358554 9.12407229,13.198988 8.89804819,13.2303133 C8.87250602,13.2336867 8.84696386,13.2353735 8.82190361,13.2353735" id="Fill-3"></path>
            </g>
        </g>
    </g>
</svg>