<?xml version="1.0" encoding="UTF-8"?>
<svg width="24px" height="24px" viewBox="0 0 24 24" version="1.1" xmlns="http://www.w3.org/2000/svg" xmlns:xlink="http://www.w3.org/1999/xlink">
    <!-- Generator: Sketch 53.2 (72643) - https://sketchapp.com -->
    <title>切图</title>
    <desc>Created with Sketch.</desc>
    <defs>
        <polygon id="path-1" points="-1.77635684e-14 0.000213579433 19.8175366 0.000213579433 19.8175366 24.0002136 -1.77635684e-14 24.0002136"></polygon>
    </defs>
    <g id="Page-1" stroke="none" stroke-width="1" fill="none" fill-rule="evenodd">
        <g id="切图" transform="translate(-269.000000, -500.000000)">
            <g id="Group-2" transform="translate(271.000000, 500.000000)">
                <mask id="mask-2" fill="white">
                    <use xlink:href="#path-1"></use>
                </mask>
                <g id="Clip-2"></g>
                <path d="M18.5790244,22.1051322 C18.5790244,22.4842053 18.3312195,22.7366719 17.9597561,22.7366719 L1.85780488,22.7366719 C1.48634146,22.7366719 1.23853659,22.4842053 1.23853659,22.1051322 L1.23853659,1.89486776 C1.23853659,1.51579471 1.48634146,1.26307935 1.85780488,1.26307935 L17.9597561,1.26307935 C18.3312195,1.26307935 18.5790244,1.51579471 18.5790244,1.89486776 L18.5790244,22.1051322 Z M17.9597561,0 L1.85780488,0 C0.805121951,0 -3.73034936e-13,0.821076196 -3.73034936e-13,1.89486776 L-3.73034936e-13,22.1051322 C-3.73034936e-13,23.1789238 0.805121951,24 1.85780488,24 L17.9597561,24 C19.012439,24 19.817561,23.1789238 19.817561,22.1051322 L19.817561,1.89486776 C19.817561,0.821076196 19.012439,0 17.9597561,0 L17.9597561,0 Z" id="Fill-1" fill="#1890FF" mask="url(#mask-2)"></path>
                <path d="M15.482561,9.64109426 L4.335,9.64109426 C3.96353659,9.64109426 3.71573171,9.88220171 3.71573171,10.2436256 C3.71573171,10.6052868 3.96353659,10.8461569 4.335,10.8461569 L15.482561,10.8461569 C15.8540244,10.8461569 16.1018293,10.6052868 16.1018293,10.2436256 C16.1018293,9.88220171 15.8540244,9.64109426 15.482561,9.64109426" id="Fill-4" fill="#1890FF" mask="url(#mask-2)"></path>
                <path d="M8.05092683,16.8718972 L4.33507317,16.8718972 C3.96360976,16.8718972 3.71580488,17.1127673 3.71580488,17.4744285 C3.71580488,17.8358523 3.96360976,18.0769598 4.33507317,18.0769598 L8.05092683,18.0769598 C8.42239024,18.0769598 8.67019512,17.8358523 8.67019512,17.4744285 C8.67019512,17.1127673 8.42239024,16.8718972 8.05092683,16.8718972" id="Fill-6" fill="#1890FF" mask="url(#mask-2)"></path>
                <path d="M11.7666829,13.2564483 L4.33497561,13.2564483 C3.9635122,13.2564483 3.71570732,13.4975557 3.71570732,13.8592169 C3.71570732,14.2206407 3.9635122,14.4617482 4.33497561,14.4617482 L11.7666829,14.4617482 C12.1383902,14.4617482 12.3859512,14.2206407 12.3859512,13.8592169 C12.3859512,13.4975557 12.1383902,13.2564483 11.7666829,13.2564483" id="Fill-8" fill="#1890FF" mask="url(#mask-2)"></path>
                <path d="M4.95446341,7.23087409 C5.63568293,7.23087409 6.193,6.68861964 6.193,6.02581147 C6.193,5.3630033 5.63568293,4.82074885 4.95446341,4.82074885 C4.2732439,4.82074885 3.71568293,5.3630033 3.71568293,6.02581147 C3.71568293,6.68861964 4.2732439,7.23087409 4.95446341,7.23087409" id="Fill-10" fill="#1890FF" mask="url(#mask-2)"></path>
            </g>
        </g>
    </g>
</svg>